<?xml version="1.0" encoding="UTF-8"?>
<svg id="Calque_2" data-name="Calque 2" xmlns="http://www.w3.org/2000/svg" viewBox="0 0 29.67 29.67">
  <defs>
    <style>
      .cls-1 {
        fill: #560604;
      }

      .cls-1, .cls-2 {
        stroke-width: 0px;
      }

      .cls-2 {
        fill: #fff;
      }
    </style>
  </defs>
  <g id="Calque_1-2" data-name="Calque 1">
    <rect class="cls-2" width="29.67" height="29.67"/>
    <g>
      <path class="cls-2" d="M26.78,25.66H2.89V4.02h23.88v21.64ZM26.17,25.05V4.62H3.46v20.43h22.71Z"/>
      <path class="cls-1" d="M26.17,25.05H3.46V4.62h22.71v20.43ZM14.74,10.78c-.12,0-.23,0-.34.03-.06.01-.13.05-.15.1-.04.11-.06.22-.07.33,0,.13.04.26.04.39-.01.7-.03,1.41-.05,2.11,0,.27-.11.48-.31.66-.39.35-.61.79-.65,1.31-.03.35-.02.7-.02,1.05,0,1.3,0,2.6-.01,3.89,0,.83,0,1.65-.01,2.48,0,.18.03.35.09.51.04.1.11.17.22.19.18.02.36.06.55.06.44.01.88.02,1.32.01.26,0,.53-.05.79-.08.12-.02.21-.1.24-.21.03-.14.07-.28.07-.42.01-.39,0-.77,0-1.16,0-2.04,0-4.07,0-6.11,0-.62-.23-1.14-.68-1.56-.09-.08-.17-.19-.21-.3-.05-.14-.07-.3-.07-.45,0-.77-.11-1.53-.02-2.3,0-.09-.04-.19-.04-.28,0-.23-.05-.23-.24-.24-.15,0-.25-.07-.36-.16-.1-.08-.09-.12,0-.19.08-.05.16-.1.23-.16.08-.06.07-.14,0-.21-.03-.03-.07-.05-.1-.07-.06-.04-.07-.08-.04-.15.03-.06.04-.13.05-.2.02-.16.06-.2.21-.2.59,0,1.19,0,1.78,0,.04,0,.09,0,.13,0v-.31h-4.43v.29c.05,0,.1,0,.14,0,.6,0,1.2,0,1.8.01.04,0,.09.02.12.05.08.07.09.18.04.27-.08.15-.07.22.06.33.03.03.07.05.11.08-.09.07-.17.12-.25.19-.11.11-.11.2,0,.31.02.02.04.05.07.08ZM10.16,19.51h0c0-1.17,0-2.33,0-3.5,0-.67-.22-1.22-.71-1.66-.15-.13-.23-.29-.24-.49,0-.18-.03-.37-.03-.55,0-.64-.1-1.29-.01-1.93.01-.11-.03-.22-.04-.34-.02-.22-.02-.23-.24-.24-.02,0-.04,0-.07,0-.22,0-.44,0-.66.01-.07,0-.16.05-.19.11-.05.1-.07.22-.07.33,0,.13.04.26.04.38-.01.71-.04,1.41-.05,2.12,0,.27-.12.48-.32.66-.38.34-.6.78-.64,1.28-.03.36-.02.72-.02,1.08,0,1.23-.01,2.45-.02,3.68,0,.39,0,.78,0,1.17,0,.59,0,1.17.01,1.76,0,.33.13.44.46.49.04,0,.07.01.11.01.44.01.89.04,1.33.03.33,0,.65-.04.98-.07.17-.02.29-.12.32-.3.02-.12.05-.24.05-.36,0-1.22,0-2.45,0-3.67ZM19.5,19.46s-.01,0-.02,0c0,.09,0,.18,0,.27,0,.95,0,1.9,0,2.85,0,.27,0,.55.02.82.02.3.14.44.43.47.27.03.55.04.83.04.47,0,.93,0,1.4-.03.44-.03.53-.08.59-.61,0-.03,0-.05,0-.08,0-.38,0-.76,0-1.13,0-2.06,0-4.11,0-6.17,0-.58-.21-1.08-.64-1.47-.22-.2-.32-.43-.33-.72-.02-.67-.04-1.33-.07-2,0-.04,0-.09.01-.13.1-.23,0-.45-.03-.67,0-.03-.05-.07-.08-.08-.06-.02-.13-.03-.2-.03-.24,0-.47,0-.71.01-.06,0-.14.05-.16.1-.04.1-.06.22-.07.33,0,.13.04.26.04.39-.01.7-.04,1.41-.05,2.11,0,.27-.11.48-.31.66-.39.35-.61.79-.65,1.3-.03.36-.02.72-.02,1.08,0,.89,0,1.79,0,2.68ZM21.19,7.74c.18-.16.17-.27,0-.4-.05-.04-.11-.08-.16-.12-.07-.06-.07-.11,0-.16.08-.05.16-.09.22-.15.11-.1.1-.18-.02-.26-.02-.01-.04-.02-.06-.04-.07-.04-.08-.09-.05-.16.03-.07.04-.14.05-.21.01-.14.06-.19.2-.19.6,0,1.2,0,1.8,0,.04,0,.09,0,.13,0v-.32h-4.43v.3c.05,0,.09,0,.14,0,.6,0,1.2,0,1.8,0,.04,0,.09.01.11.04.08.07.09.19.04.28-.08.15-.07.22.06.33.04.03.07.06.11.09-.06.04-.1.06-.14.09-.04.03-.08.06-.11.09-.11.11-.11.2,0,.31.07.06.14.11.21.17.03.02.05.04.09.07-.18.1-.31.26-.53.2v2.11h.83v-2.11h-.31ZM6.53,6.05c.05,0,.1,0,.14,0,.6,0,1.2,0,1.8,0,.04,0,.09.01.12.03.08.07.1.19.04.29-.08.14-.07.21.06.32.04.03.07.06.12.09-.07.05-.13.08-.19.13-.18.14-.19.24-.02.4.06.05.12.09.19.14.02.02.05.04.08.07-.06.04-.11.07-.16.1-.05.03-.1.07-.15.1-.14.1-.15.32.01.41.09.05.17.13.27.2-.09.06-.16.1-.24.14-.24.15-.24.31-.01.46.07.05.14.09.22.14-.38.3-.41.37-.26.58,0-.05,0-.08,0-.1-.04-.12.03-.18.12-.23.07-.04.13-.07.19-.11.13-.09.13-.17,0-.26-.07-.05-.14-.09-.21-.15-.08-.06-.08-.1,0-.16.07-.05.15-.09.23-.14.14-.09.15-.21.02-.32-.07-.06-.15-.12-.22-.17-.1-.07-.1-.11,0-.18.06-.04.13-.08.19-.12.15-.11.15-.23,0-.35-.06-.05-.13-.09-.19-.14-.08-.07-.07-.11.01-.17.08-.05.16-.1.23-.16.09-.08.08-.16-.02-.24-.02-.02-.04-.03-.07-.04-.07-.04-.09-.09-.05-.17.03-.06.04-.13.05-.2.01-.14.06-.19.21-.19.59,0,1.19,0,1.78,0,.04,0,.09,0,.14,0v-.32h-4.44v.3Z"/>
      <path class="cls-2" d="M14.74,10.78s-.05-.06-.07-.08c-.11-.11-.12-.2,0-.31.07-.07.16-.12.25-.19-.04-.03-.07-.06-.11-.08-.14-.11-.15-.17-.06-.33.05-.09.04-.2-.04-.27-.03-.03-.08-.05-.12-.05-.6,0-1.2,0-1.8-.01-.04,0-.09,0-.14,0v-.29h4.43v.31s-.09,0-.13,0c-.59,0-1.19,0-1.78,0-.16,0-.19.04-.21.2,0,.07-.02.14-.05.2-.03.07-.02.11.04.15.03.02.07.04.1.07.07.06.08.14,0,.21-.07.06-.15.11-.23.16-.1.07-.1.11,0,.19.1.09.21.15.36.16.2,0,.24.01.24.24,0,.09.05.19.04.28-.08.77.02,1.53.02,2.3,0,.15.02.31.07.45.04.11.12.21.21.3.45.42.69.94.68,1.56,0,2.04,0,4.07,0,6.11,0,.39,0,.77,0,1.16,0,.14-.04.28-.07.42-.03.12-.12.2-.24.21-.26.04-.53.08-.79.08-.44.01-.88,0-1.32-.01-.18,0-.36-.04-.55-.06-.11-.01-.18-.08-.22-.19-.06-.17-.09-.33-.09-.51,0-.83.01-1.65.01-2.48,0-1.3,0-2.6.01-3.89,0-.35,0-.7.02-1.05.04-.52.26-.97.65-1.31.2-.18.3-.39.31-.66.02-.7.04-1.41.05-2.11,0-.13-.04-.26-.04-.39,0-.11.03-.23.07-.33.02-.05.09-.09.15-.1.1-.02.21-.02.34-.03Z"/>
      <path class="cls-2" d="M10.16,19.51c0,1.22,0,2.45,0,3.67,0,.12-.03.24-.05.36-.03.18-.15.28-.32.3-.33.03-.65.07-.98.07-.44,0-.89-.02-1.33-.03-.04,0-.07,0-.11-.01-.33-.05-.45-.16-.46-.49-.02-.59,0-1.17-.01-1.76,0-.39,0-.78,0-1.17,0-1.23.01-2.45.02-3.68,0-.36,0-.72.02-1.08.04-.51.26-.94.64-1.28.2-.18.31-.39.32-.66.01-.71.04-1.41.05-2.12,0-.13-.04-.26-.04-.38,0-.11.02-.23.07-.33.03-.05.12-.1.19-.11.22-.02.44,0,.66-.01.02,0,.04,0,.07,0,.22.02.23.03.24.24,0,.11.06.23.04.34-.09.65.02,1.29.01,1.93,0,.18.02.37.03.55.01.2.1.36.24.49.5.44.72,1,.71,1.66-.01,1.17,0,2.33,0,3.5h0Z"/>
      <path class="cls-2" d="M19.5,19.46c0-.89,0-1.79,0-2.68,0-.36,0-.72.02-1.08.04-.52.26-.96.65-1.3.2-.18.31-.39.31-.66.01-.7.04-1.41.05-2.11,0-.13-.04-.26-.04-.39,0-.11.03-.23.07-.33.02-.05.1-.1.16-.1.23-.01.47-.01.71-.01.07,0,.14,0,.2.03.03,0,.08.05.08.08.02.22.13.44.03.67-.02.04-.01.09-.01.13.02.67.05,1.33.07,2,0,.29.11.52.33.72.43.39.64.89.64,1.47,0,2.06,0,4.11,0,6.17,0,.38,0,.76,0,1.13,0,.03,0,.05,0,.08-.06.52-.15.57-.59.61-.46.04-.93.03-1.4.03-.28,0-.55-.02-.83-.04-.3-.03-.42-.16-.43-.47-.02-.27-.02-.55-.02-.82,0-.95,0-1.9,0-2.85,0-.09,0-.18,0-.27,0,0,.01,0,.02,0Z"/>
      <path class="cls-2" d="M21.19,7.74h.31v2.11h-.83v-2.11c.22.05.35-.1.53-.2-.04-.03-.06-.05-.09-.07-.07-.06-.14-.11-.21-.17-.12-.11-.12-.2,0-.31.03-.03.07-.06.11-.09.04-.03.08-.05.14-.09-.04-.03-.08-.06-.11-.09-.14-.11-.15-.17-.06-.33.05-.09.04-.21-.04-.28-.03-.02-.08-.04-.11-.04-.6,0-1.2,0-1.8,0-.04,0-.09,0-.14,0v-.3h4.43v.32s-.09,0-.13,0c-.6,0-1.2,0-1.8,0-.14,0-.19.05-.2.19,0,.07-.02.15-.05.21-.03.07-.02.12.05.16.02.01.04.02.06.04.12.08.13.16.02.26-.07.06-.15.1-.22.15-.08.05-.08.1,0,.16.05.04.11.08.16.12.18.13.18.23,0,.4Z"/>
      <path class="cls-2" d="M6.53,6.05v-.3h4.44v.32c-.05,0-.1,0-.14,0-.59,0-1.19,0-1.78,0-.14,0-.19.05-.21.19,0,.07-.02.14-.05.2-.03.08-.02.13.05.17.02.01.05.03.07.04.1.07.11.16.02.24-.07.06-.15.1-.23.16-.08.06-.09.1-.01.17.06.05.13.09.19.14.14.11.14.24,0,.35-.06.04-.13.08-.19.12-.1.07-.1.11,0,.18.08.06.15.11.22.17.12.11.12.23-.02.32-.07.05-.15.09-.23.14-.09.06-.09.1,0,.16.07.05.14.09.21.15.12.09.12.18,0,.26-.06.04-.13.08-.19.11-.09.05-.16.11-.12.23,0,.03,0,.06,0,.1-.15-.21-.12-.28.26-.58-.07-.05-.15-.09-.22-.14-.23-.15-.23-.32.01-.46.07-.04.15-.09.24-.14-.1-.08-.18-.15-.27-.2-.16-.1-.15-.32-.01-.41.05-.03.1-.07.15-.1.05-.03.09-.06.16-.1-.03-.03-.06-.05-.08-.07-.06-.05-.13-.09-.19-.14-.17-.15-.16-.26.02-.4.06-.04.12-.08.19-.13-.04-.03-.08-.06-.12-.09-.13-.11-.14-.17-.06-.32.06-.1.05-.22-.04-.29-.03-.02-.08-.03-.12-.03-.6,0-1.2,0-1.8,0-.04,0-.08,0-.14,0Z"/>
    </g>
  </g>
</svg>