<svg width="14" height="16" viewBox="0 0 14 16" fill="#3D0404" xmlns="http://www.w3.org/2000/svg">
<path d="M8.82184 15.7544H2.6583C1.92882 15.7544 1.25459 15.4526 0.759514 14.9048C0.269799 14.3627 0 13.6265 0 12.8322V6.00858C0 5.2143 0.269799 4.47812 0.759514 3.936C1.25459 3.38823 1.92882 3.08643 2.6583 3.08643H5.44372C5.6513 3.08643 5.81919 3.263 5.81919 3.48131C5.81919 3.69963 5.6513 3.8762 5.44372 3.8762H2.6583C1.57106 3.8762 0.750932 4.7929 0.750932 6.00858V12.8322C0.750932 14.0479 1.57106 14.9646 2.6583 14.9646H8.82184C9.87368 14.9646 10.7292 14.0079 10.7292 12.8322V9.09829C10.7292 8.87997 10.8971 8.7034 11.1047 8.7034C11.3123 8.7034 11.4801 8.87997 11.4801 9.09829V12.8322C11.4801 14.4434 10.2878 15.7544 8.82184 15.7544Z"/>
<path d="M6.51164 9.06973C6.30352 9.06973 6.0954 8.98511 5.93771 8.81644C5.62607 8.48304 5.6309 7.94712 5.9479 7.61993L12.1367 1.22503C12.4537 0.897275 12.9632 0.902352 13.2743 1.23575C13.5854 1.56915 13.5811 2.10506 13.2641 2.43225L7.07483 8.82715C6.91821 8.98906 6.71439 9.06973 6.5111 9.06973H6.51164Z"/>
<path d="M12.9176 8.84106C12.4735 8.84106 12.113 8.46197 12.113 7.99487V2.44615H6.5116C6.06748 2.44615 5.70703 2.06706 5.70703 1.59997C5.70703 1.13288 6.06694 0.753784 6.5116 0.753784H12.9176C13.3617 0.753784 13.7222 1.13288 13.7222 1.59997V7.99487C13.7222 8.46197 13.3617 8.84106 12.9176 8.84106Z"/>
</svg>
